<?xml version="1.0" encoding="UTF-8" standalone="no"?>
<!-- Created with Inkscape (http://www.inkscape.org/) -->

<svg
   viewBox="0 0 239.92131 275.06829"
   version="1.1"
   id="svg1"
   xml:space="preserve"
   inkscape:version="1.4 (e7c3feb100, 2024-10-09)"
   sodipodi:docname="logo.svg"
   xmlns:inkscape="http://www.inkscape.org/namespaces/inkscape"
   xmlns:sodipodi="http://sodipodi.sourceforge.net/DTD/sodipodi-0.dtd"
   xmlns="http://www.w3.org/2000/svg"
   xmlns:svg="http://www.w3.org/2000/svg"><sodipodi:namedview
     id="namedview1"
     pagecolor="#ffffff"
     bordercolor="#000000"
     borderopacity="0.25"
     inkscape:showpageshadow="2"
     inkscape:pageopacity="0.0"
     inkscape:pagecheckerboard="0"
     inkscape:deskcolor="#d1d1d1"
     inkscape:document-units="in"
     inkscape:zoom="3.5355339"
     inkscape:cx="-62.932504"
     inkscape:cy="156.69486"
     inkscape:window-width="3440"
     inkscape:window-height="1361"
     inkscape:window-x="0"
     inkscape:window-y="282"
     inkscape:window-maximized="1"
     inkscape:current-layer="layer1" /><defs
     id="defs1" /><g
     inkscape:label="Layer 1"
     inkscape:groupmode="layer"
     id="layer1"
     transform="translate(-449.4,-177.01512)"><path
       style="fill:#7e6857;fill-opacity:1;stroke:none;stroke-width:50;stroke-linecap:round;stroke-linejoin:round;stroke-miterlimit:5.8;paint-order:stroke fill markers"
       d="m 538.81537,429.63808 c 1.13137,-0.28284 -19.79899,10.74802 -19.79899,10.74802 l -33.0926,-16.40487 -28.00143,-31.39554 -5.37401,-54.87149 13.85929,-42.99209 27.43575,-32.24407 28.84995,-15.27351 35.0725,-9.89949 33.0926,5.09116 37.61808,15.27351 40.44651,41.29504 15.2735,67.03372 -22.62741,51.76022 -34.78966,26.02153 -61.09402,4.24264 -12.72793,-16.97057 z"
       id="path2" /><path
       style="fill:#7a4d30;fill-opacity:1;stroke:none;stroke-width:50;stroke-linecap:round;stroke-linejoin:round;stroke-miterlimit:5.8;paint-order:stroke fill markers"
       d="m 560.31141,257.10403 31.67839,60.81118 5.09117,49.49747 -5.09117,35.92103 c 0,0 -37.61808,31.39554 -35.92103,30.82985 1.69706,-0.56568 -32.52691,-5.37401 -32.52691,-5.37401 l -22.34457,-54.02296 7.07106,-55.15432 z"
       id="path3" /><path
       style="fill:#41b134;fill-opacity:1;stroke:none;stroke-width:50;stroke-linecap:round;stroke-linejoin:round;stroke-miterlimit:5.8;paint-order:stroke fill markers"
       d="m 522.97618,210.43498 3.39411,9.89949 20.64752,5.9397 -0.84853,-16.40488 -6.78823,-12.16223 -6.22254,-0.56569 -2.54558,6.50538 z"
       id="path4" /><path
       style="fill:#218e14;fill-opacity:1;stroke:none;stroke-width:50;stroke-linecap:round;stroke-linejoin:round;stroke-miterlimit:5.8;paint-order:stroke fill markers"
       d="m 593.40401,221.46584 20.08183,13.01077 19.23331,-3.11127 25.45584,-21.49605 9.61665,-16.12203 -35.63818,-5.09117 -20.93036,3.39411 -9.61665,3.67696 -16.68772,16.40487 v 8.48529 z"
       id="path5" /><path
       style="fill:#25731c;fill-opacity:1;stroke:none;stroke-width:50;stroke-linecap:round;stroke-linejoin:round;stroke-miterlimit:5.8;paint-order:stroke fill markers"
       d="m 559.46289,199.9698 c -0.56569,1.13137 11.03086,12.44508 11.03086,12.44508 l 25.73869,-9.33381 6.78822,-9.61665 -5.37401,-7.35392 -11.03086,1.69706 -7.9196,-7.91959 -6.22254,1.13137 -2.26274,13.85929 -7.9196,1.13137 z"
       id="path6" /><path
       style="fill:#000000"
       d="m 563.40281,449.2917 c -5.25231,-2.66733 -6.20621,-3.78308 -9.22634,-10.7917 -1.1612,-2.69472 -1.92122,-3.0896 -7.46877,-3.8805 -5.48121,-0.78145 -6.54906,-0.64119 -9.49186,1.24677 -6.89583,4.42402 -12.46295,6.52468 -18.31584,6.91116 -5.01844,0.33138 -7.06335,-0.0836 -12.5,-2.53677 C 495.90841,435.5066 486.42228,428.84759 478.40116,420.58622 457.95641,399.52911 449.4,377.48085 449.4,345.85569 c 0,-14.5997 2.59483,-26.1689 9.4807,-42.27022 14.47257,-33.84141 50.2888,-60.10457 88.7693,-65.09233 5.55436,-0.71994 6.16014,-2.49281 2.2812,-6.67607 -2.71186,-2.92461 -2.96118,-3.02654 -12.95516,-5.29639 -8.59799,-1.9528 -13.3929,-4.83813 -15.19077,-9.14103 -2.6224,-6.27627 -1.17258,-10.64198 3.96211,-11.9307 1.76549,-0.44311 3.18457,-1.78582 4.03333,-3.8163 1.73197,-4.14337 4.07844,-5.96598 7.68071,-5.96598 4.65777,0 7.68827,3.72345 10.48013,12.87655 4.73171,15.51283 9.85877,26.18573 12.68277,26.40145 1.34402,0.10267 3.50102,-5.39851 5.26151,-13.41889 1.68188,-7.66224 1.67963,-8.01435 -0.0576,-9 -2.99714,-1.70052 -7.46292,-6.87277 -8.09991,-9.3813 -0.33546,-1.32106 0.11263,-3.84601 1.02031,-5.74944 1.29169,-2.7087 2.5303,-3.6378 6.13489,-4.60188 4.47964,-1.19812 4.51645,-1.24349 4.51645,-5.56631 0,-4.36468 1.33635,-8.0838 3.3997,-9.46154 0.60517,-0.40408 2.85692,-0.74158 5.00391,-0.75 3.31913,-0.013 4.49151,0.62103 7.83009,4.23469 3.70715,4.0126 4.19366,4.23147 8.70946,3.91819 4.17875,-0.2899 5.04451,6.7e-4 6.8533,2.30018 1.13868,1.4476 2.22457,3.09471 2.41308,3.66026 0.21767,0.65301 3.25274,0.28836 8.31661,-0.99919 18.84743,-4.79219 33.91698,-4.51609 50.65045,0.92801 5.40287,1.75779 9.8234,3.73288 9.8234,4.38909 0,1.64363 -16.17067,19.71346 -24.30603,27.16066 -3.66935,3.35896 -9.71409,7.6233 -13.43276,9.4763 -6.1525,3.06578 -7.57148,3.37124 -15.76121,3.3928 -8.88329,0.0234 -9.08721,-0.0314 -15.72549,-4.2263 -3.81902,-2.41333 -7.94795,-4.25 -9.55422,-4.25 -4.78967,0 -15.78264,7.97798 -13.62791,9.89025 0.49919,0.44302 4.28262,1.34597 8.40762,2.00656 13.25247,2.12228 17.34026,3.30185 25.5,7.35824 23.25235,11.55926 38.30128,23.70598 52.06212,42.02188 8.92725,11.88232 12.4836,18.55942 17.16259,32.22307 7.70238,22.49257 8.22089,43.88768 1.57427,64.95876 -10.25094,32.49746 -34.17069,54.88854 -67.9327,63.59124 -6.1327,1.58081 -12.27389,2.13849 -27.86628,2.53054 l -20,0.50287 z M 610.4,441.99521 c 6.25197,-1.29873 12.74803,-3.55811 19,-6.60833 8.32589,-4.06205 10.73591,-5.8885 19.5,-14.77822 16.48101,-16.71725 23.96868,-33.24041 26.55001,-58.58831 2.79985,-27.49382 -4.98976,-53.38638 -22.71982,-75.52035 -18.17766,-22.69276 -38.88615,-36.1275 -63.21771,-41.01282 -16.42541,-3.29791 -18.29561,-3.24669 -21.52359,0.58955 -5.29267,6.28998 -2.95144,13.86097 10.31186,33.34605 8.0897,11.88456 14.82179,27.93885 18.06369,43.07722 6.46539,30.19075 7.20907,40.65487 4.12206,58 -1.17464,6.6 -3.04885,14.86902 -4.1649,18.3756 -2.02905,6.37517 -8.61087,18.97019 -11.75425,22.49301 -3.01416,3.378 -13.57407,10.31571 -18.51521,12.16423 -2.66632,0.99749 -5.10386,2.48076 -5.41676,3.29615 -0.87404,2.27772 3.46407,5.17101 7.75328,5.17101 16.97247,0 36.00273,-26.46892 41.45965,-57.66564 1.94305,-11.10825 1.98769,-32.19105 0.10023,-47.33436 -0.80543,-6.46212 -1.05491,-11.88177 -0.56947,-12.37148 0.48709,-0.49137 1.86418,2.3437 3.15729,6.5 2.11147,6.78674 2.29618,9.23561 2.32852,30.87148 0.0339,22.67782 -0.062,23.84986 -2.74132,33.5 -3.80072,13.68915 -11.74453,30.1038 -17.97596,37.1445 -1.04391,1.17948 -1.52667,2.36166 -1.07281,2.62707 1.57181,0.91916 18.57462,-3.1589 23.77151,-5.7015 10.03836,-4.91131 23.42709,-15.38889 28.66481,-22.43214 9.42685,-12.67645 16.12559,-30.86488 17.54753,-47.64511 1.27435,-15.03853 -3.10258,-34.98222 -11.25502,-51.28409 -5.89326,-11.78436 -15.07841,-23.33905 -27.73112,-34.88508 -3.11988,-2.84699 -5.6725,-5.43449 -5.6725,-5.75 0,-1.61158 3.05365,-0.0437 9.43098,4.84225 15.77888,12.08894 29.28383,31.24781 36.36125,51.5841 8.90865,25.59814 7.65667,50.36256 -3.71649,73.51292 -7.70661,15.68701 -22.42415,30.49708 -34.87679,35.09607 -2.58442,0.95447 -5.14895,2.05944 -5.69895,2.45549 -2.62282,1.88867 -17.85121,5.73742 -24.95454,6.30688 -4.37499,0.35074 -8.40249,1.08567 -8.95,1.63318 -1.75376,1.75376 14.2994,1.08983 24.40454,-1.00933 z m 15.6601,-33.72468 c 3.76195,-4.25121 7.85462,-8.8615 9.09482,-10.2451 3.60945,-4.02673 8.88275,-14.98078 10.6031,-22.02543 2.21638,-9.07586 3.82005,-24.51878 3.10971,-29.94566 -0.32787,-2.50489 -1.50204,-8.70746 -2.60927,-13.78349 -2.58757,-11.8626 -2.04188,-14.61361 1.44224,-7.27085 3.62785,7.64567 5.03533,18.12914 4.43047,33 -0.79321,19.50164 -6.2171,33.60726 -17.8177,46.33762 C 628.92495,410.25091 621.78517,416 619.82998,416 c -0.33538,0 2.46818,-3.47826 6.23012,-7.72947 z M 604.09405,315.75 c -0.86771,-2.3375 -2.3286,-6.725 -3.24642,-9.75 -4.38875,-14.46467 -9.27047,-25.06162 -18.37417,-39.88556 -5.68655,-9.25965 -6.21721,-12.27226 -1.23683,-7.02164 8.15576,8.5983 25.1965,44.627 26.20633,55.4072 0.62417,6.66313 -1.10051,7.30688 -3.34891,1.25 z m -82.18799,120.2402 c 0.34325,-0.55539 -0.76973,-2.18263 -2.47329,-3.61608 -5.48836,-4.61815 -11.95697,-14.83528 -15.05722,-23.78277 -4.73104,-13.65404 -6.37522,-24.90392 -6.37089,-43.59135 0.004,-15.25711 0.2461,-17.46284 3.22026,-29.28213 3.9677,-15.76757 6.90688,-23.67986 12.88341,-34.68227 7.66759,-14.11552 14.77374,-22.36028 30.699,-35.61783 C 556.12842,255.99312 557.98866,243 548.01691,243 c -4.16531,0 -17.27953,3.42775 -25.61691,6.69567 -8.37321,3.28195 -23.59795,13.35025 -32.43398,21.44895 -16.49441,15.11804 -29.53391,38.52128 -33.56621,60.24449 -1.66102,8.94844 -0.73886,28.20134 1.90656,39.80502 5.5974,24.55211 15.95962,39.84677 38.0802,56.20645 0.81762,0.60468 -0.57145,-1.28391 -3.08682,-4.19687 -5.61872,-6.50684 -13.24433,-19.18193 -17.59984,-29.25402 -4.66758,-10.79372 -8.73798,-35.09733 -7.94694,-47.44969 0.6259,-9.7736 1.38875,-13.5 2.76366,-13.5 0.48585,0 0.88518,5.5125 0.88739,12.25 0.008,23.65696 5.06555,43.63736 15.14596,59.83299 3.39717,5.45803 6.33298,9.76739 6.52402,9.57634 0.19105,-0.19104 -0.25947,-2.10505 -1.00115,-4.25334 -2.88025,-8.34279 -6.68212,-34.38467 -6.65539,-45.58788 0.0292,-12.25793 4.81061,-36.66044 6.92688,-35.35251 0.47735,0.29502 0.70111,1.32344 0.49727,2.2854 -2.29163,10.81408 -3.65107,28.0789 -3.19531,40.5803 0.8801,24.14093 8.97826,49.96979 18.4356,58.79989 5.27585,4.92593 12.26462,7.38239 13.82416,4.85901 z M 495.4,318.35182 c 0,-6.11059 9.77335,-23.92703 20.43397,-37.25032 6.18649,-7.73167 21.63661,-23.04937 25.06712,-24.85227 4.40335,-2.31417 3.50132,0.45838 -1.77158,5.44527 -7.18507,6.79534 -20.44621,21.56009 -25.872,28.8055 -2.47123,3.3 -6.86531,10.725 -9.76461,16.5 -5.84587,11.64418 -8.0929,14.79606 -8.0929,11.35182 z m 59.45441,106.55406 c 4.7645,-4.18328 6.8049,-11.0959 5.95014,-20.15829 -0.56935,-6.0364 -0.35049,-7.3378 2.06404,-12.27292 3.12671,-6.39076 6.56276,-8.59069 17.26009,-11.05077 C 587.53241,379.72125 591.4,377.71421 591.4,375.57477 591.4,373.81335 586.23148,372 581.21094,372 c -5.42452,0 -10.77346,-3.02056 -15.36974,-8.67932 -3.9937,-4.9169 -6.54599,-7.24255 -11.91565,-10.85758 -1.89334,-1.27466 -3.85604,-4.08127 -5.24483,-7.5 -3.18781,-7.84728 -2.98528,-16.00235 0.71928,-28.9631 3.3849,-11.8424 3.60187,-15.16923 1.5,-23 -0.81194,-3.025 -1.4816,-7.61094 -1.48813,-10.19098 -0.007,-2.58004 -0.42625,-4.94708 -0.93271,-5.26009 -0.50646,-0.31301 -2.32978,1.89347 -4.05182,4.90328 l -3.13099,5.4724 2.02288,6.54931 c 1.85637,6.01024 1.97178,8.25628 1.40211,27.28769 -0.69375,23.177 -0.70255,23.13544 7.23626,34.18568 5.97182,8.31233 8.3749,16.18383 8.55512,28.02294 0.0976,6.41468 -0.26895,7.72411 -4.53275,16.19088 -3.45882,6.86826 -4.58168,10.18302 -4.41372,13.02957 0.51924,8.79999 -4.3812,6.75839 -8.47976,-3.53281 -3.51888,-8.83568 -4.11997,-14.97712 -2.25353,-23.02505 2.85417,-12.30692 1.68438,-16.68379 -6.85049,-25.63171 -7.00648,-7.34556 -8.09017,-12.02563 -7.09351,-30.63422 0.60454,-11.2871 0.44814,-14.03947 -1.05462,-18.55965 -0.97042,-2.91898 -1.95474,-4.63224 -2.18736,-3.80724 -0.23262,0.825 -1.50836,3.8748 -2.83497,6.77734 -1.3266,2.90253 -2.41201,5.55911 -2.41201,5.9035 0,0.3444 1.18572,3.13259 2.63494,6.19599 2.34371,4.9542 2.49594,5.90434 1.37724,8.59649 -0.69173,1.66467 -1.96167,5.54266 -2.82209,8.61775 -2.00033,7.14909 -0.96507,9.91045 7.01816,18.71963 5.36717,5.92245 5.79175,6.74358 5.79175,11.20104 0,2.64554 -0.89419,7.66266 -1.9871,11.14917 -1.0929,3.4865 -1.9929,8.16718 -2,10.4015 -0.0148,4.66304 4.84781,19.803 8.11052,25.25241 3.91326,6.53598 4.81649,7.18518 9.99677,7.18518 3.95124,0 5.43951,-0.55253 8.33422,-3.09412 z m -24.78775,-8.08585 c -1.38963,-3.47602 -3.50987,-10.11612 -4.71162,-14.7558 l -2.18501,-8.43576 2.70241,-8.1327 c 3.77202,-11.35161 2.97347,-13.9858 -7.25017,-23.91622 -6.30561,-6.12476 -7.84696,-7.18698 -8.40198,-5.79017 -1.40239,3.52934 -0.72014,6.14127 2.66132,10.18861 6.57935,7.87497 6.86637,15.82893 0.85837,23.78728 -2.75562,3.65016 -2.71155,3.99133 1.82049,14.0924 1.99447,4.44528 4.99377,8.59004 9.59011,13.25264 3.67841,3.73143 6.85782,6.61462 7.06536,6.40708 0.20754,-0.20754 -0.75964,-3.22135 -2.14928,-6.69736 z m 43.82299,-1.80001 c 1.76383,-3.41087 1.9193,-6.81419 0.48378,-10.5899 -0.79035,-2.07877 -0.66999,-3.24428 0.52305,-5.0651 1.93215,-2.94883 4.15795,-3.01335 6.44668,-0.18689 l 1.76375,2.17814 2.52825,-4.42814 c 1.39054,-2.43547 2.81686,-5.67282 3.16961,-7.19411 0.55015,-2.37263 0.247,-2.91635 -2.13171,-3.82334 -7.153,-2.72741 -16.08682,1.9417 -20.27698,10.59742 -1.87991,3.88337 -2.05398,5.40383 -1.43329,12.51926 0.78035,8.94575 2.28179,11.66137 5.49631,9.94101 1.05611,-0.56521 2.59986,-2.34197 3.43055,-3.94835 z M 548.4,405.47504 c 0,-0.83873 1.63557,-4.77278 3.6346,-8.74233 4.85373,-9.63821 5.50958,-16.9543 2.38969,-26.65718 -1.55146,-4.82504 -3.47585,-8.30909 -6.22967,-11.27864 -8.35748,-9.01218 -10.26195,-16.52255 -8.82375,-34.79689 1.28453,-16.32184 1.16827,-26.69474 -0.3461,-30.881 l -1.22308,-3.38101 -1.55631,2.38101 c -5.01817,7.67728 -6.10407,11.13932 -5.27761,16.82595 0.44403,3.05528 0.86517,13.43005 0.93586,23.05505 0.14558,19.82267 0.85227,22.58658 7.54262,29.5 4.08403,4.2202 6.95375,10.7288 6.95375,15.7713 0,1.66091 -0.99662,7.03282 -2.2147,11.93757 l -2.2147,8.91773 2.35366,4.4367 c 2.38185,4.48984 4.07574,5.69996 4.07574,2.91174 z m -36,-24.80757 c 1.3693,-2.43934 1.32573,-2.99285 -0.5,-6.35233 -3.84384,-7.07294 -5.56652,-4.40194 -3.85204,5.97254 0.70209,4.24837 2.11141,4.37136 4.35204,0.37979 z m 72.0067,-14.17554 c 1.76561,-2.12743 0.76428,-9.22571 -2.11851,-15.01785 -1.8544,-3.72589 -3.86696,-5.7473 -9.00425,-9.04382 -9.03965,-5.80063 -11.42363,-10.53928 -11.28446,-22.43026 0.10701,-9.14324 3.39618,-21.52385 7.88761,-29.68938 2.12575,-3.86468 2.1768,-4.29993 0.65863,-5.61569 -3.65816,-3.17045 -6.39805,-2.7677 -11.38484,1.6735 -4.56054,4.06159 -4.70185,4.3506 -3.75,7.6695 1.66908,5.81975 1.11098,14.69411 -1.62419,25.82607 -4.19139,17.05873 -2.58651,23.89813 7.4174,31.61026 2.87213,2.21416 6.42546,5.82574 7.8963,8.02574 3.21627,4.81074 4.85114,6.18522 8.79961,7.3981 4.32059,1.32718 5.10899,1.27796 6.5067,-0.40617 z m 6.487,-19.1616 c -1.28552,-4.42201 -2.89908,-6.84652 -8.00553,-12.02889 -8.06906,-8.18905 -8.91608,-10.70314 -8.15866,-24.21613 0.32632,-5.82192 0.26647,-12.37961 -0.133,-14.57264 l -0.72632,-3.98732 -3.18931,8.07087 c -3.60551,9.12409 -5.58078,19.5237 -4.65934,24.53094 1.04954,5.70336 5.11714,11.69888 9.42959,13.89893 4.58912,2.34119 10.19995,9.49684 12.52532,15.97391 3.51174,9.78158 3.88928,10.11087 4.2242,3.68432 0.17242,-3.30867 -0.39097,-8.20313 -1.30695,-11.35399 z m -77.08543,-4.67535 c 1.47899,-1.98095 2.13369,-4.67803 2.41211,-9.93695 0.43008,-8.12353 -0.62732,-8.19638 -3.16471,-0.21803 -4.06155,12.77079 -3.80318,16.25696 0.7526,10.15498 z M 590.4,329.52289 c 0,-3.68763 -5.41655,-20.7048 -7.62186,-23.94559 -1.03273,-1.51764 -1.41555,-1.62298 -1.81712,-0.5 -1.1804,3.30095 -2.33764,17.37716 -1.58799,19.31573 1.18822,3.07271 7.65595,8.47029 10.27697,8.57656 0.4125,0.0167 0.75,-1.53429 0.75,-3.4467 z m -27.54702,-56.61382 c -0.79132,-1.53024 -1.85592,-3.04007 -2.36579,-3.35519 -1.73568,-1.0727 -5.08719,4.56698 -5.08719,8.56037 v 3.84453 l 4.44587,-3.13373 c 4.36087,-3.07383 4.41836,-3.18693 3.00711,-5.91598 z M 627.9,230.1822 c 7.64168,-2.67842 17.38207,-10.62281 31,-25.284 7.42169,-7.99026 7.44219,-7.53291 -0.44293,-9.8812 -12.17423,-3.62565 -22.46247,-4.38273 -34.75038,-2.55719 -13.93718,2.07055 -17.82646,3.28917 -21.5254,6.74449 -2.72637,2.54682 -2.96513,3.24456 -2.37439,6.93887 0.7973,4.98602 2.23259,7.85683 3.92812,7.85683 2.84232,0 9.53636,-5.64233 15.53044,-13.09043 5.6107,-6.97171 8.13454,-9.24526 8.13454,-7.32783 0,1.13825 -7.21993,12.95624 -9.26671,15.16826 -2.7885,3.01362 -1.93172,2.85095 6.01551,-1.14218 3.71316,-1.86569 12.1512,-5.07334 18.7512,-7.12811 6.6,-2.05476 12.5625,-3.95142 13.25,-4.21481 0.6875,-0.26338 1.25,-0.0825 1.25,0.4019 0,0.48442 -3.4875,2.17357 -7.75,3.75366 -10.29831,3.81753 -21.76697,9.2926 -23.27731,11.11244 -1.02786,1.23851 -0.69211,1.47918 2.15487,1.5446 1.85484,0.0426 5.62244,0.9305 8.37244,1.97304 l 5,1.89554 -5,-0.72304 c -2.75,-0.39767 -8.6,-0.7052 -13,-0.6834 -8.73871,0.0433 -13.82624,1.93679 -18.41593,6.85412 l -2.41593,2.58839 2.85673,2.45471 c 5.28244,4.53906 13.81594,5.60515 21.97513,2.74534 z m -49.54044,-6.41772 c 3.82924,-4.24824 4.20061,-5.09714 3.60914,-8.25 C 581.42178,212.59917 580.87968,212 578.78895,212 c -5.54044,0 -6.38895,1.35933 -6.38895,10.23518 0,4.53134 0.37629,7.74205 0.84556,7.21482 0.46505,-0.5225 2.76636,-3.08098 5.114,-5.68552 z m -38.63698,-4.07709 c -6.93099,-8.79452 -9.92513,-11.16087 -12.75014,-10.07682 -0.86484,0.33188 -1.57244,1.65517 -1.57244,2.94066 0,3.59395 3.93472,7.21606 9,8.28497 7.09162,1.49651 7.36147,1.43827 5.32258,-1.14881 z M 597.2,217.8 c 1.55247,-1.55247 1.55247,-8.04753 0,-9.6 -1.9093,-1.9093 -5.54973,-1.3954 -7.2433,1.02251 -1.57128,2.24332 -2.12183,7.87902 -0.89003,9.11082 1.11872,1.11872 6.8576,0.7424 8.13333,-0.53333 z m -54.79393,-10.77744 c -1.29239,-4.7996 -4.30106,-8.23033 -6.48339,-7.39289 -3.27606,1.25714 -0.21673,8.92283 5.13997,12.87911 2.44002,1.80211 2.85245,0.11786 1.34342,-5.48622 z m 30.42908,-0.9509 c 2.14388,-2.36896 1.39587,-5.27282 -2.05808,-7.9897 -2.64729,-2.08235 -5.0492,-1.82996 -7.12707,0.74891 -1.84228,2.28648 -1.54032,3.96972 1.20455,6.71458 2.9524,2.95241 5.62541,3.12866 7.9806,0.52621 z m 11.41861,-1.39545 c 0.80229,-0.9667 0.78137,-1.64108 -0.0775,-2.5 -2.53761,-2.53761 -5.99453,-0.34913 -3.73986,2.36759 1.4965,1.80317 2.40466,1.83467 3.81741,0.13241 z m 10.8694,-4.64893 c 4.35261,-2.65389 5.36207,-6.7301 2.28396,-9.2226 -2.00439,-1.62305 -2.56063,-1.68363 -4.40076,-0.47921 -2.90436,1.90097 -4.90793,6.33684 -4.17721,9.24826 0.73717,2.93711 2.06396,3.03272 6.29401,0.45355 z m -13.7456,-5.50024 c 1.80487,-2.17474 1.49437,-8.34808 -0.53255,-10.5878 -2.09327,-2.31304 -5.71368,-2.52537 -7.44707,-0.43676 -1.67561,2.01898 -0.54333,7.28808 2.19176,10.19945 2.50332,2.66465 4.0752,2.88874 5.78786,0.82511 z"
       id="path1"
       sodipodi:nodetypes="sssssssssssssssssssssssssssssssssssssssssssssscssssssssssssssssssssssssssssssssssssssssssssssssssssssssscssssssssssssscssssssssssssssssssssssssssscsscsssssssssssssssssssssssssscssssssssssssscssssssssssssscsssssscssssssssssssssssssssssscssssssssssssssssssscsssssssssssssssssssscssscssssssssssssssssssssssssssssssssssssssssss" /></g></svg>
