<svg version="1.1" viewBox="0 0 2530.9 3105.9" xmlns="http://www.w3.org/2000/svg">
  <g transform="translate(-2604 -28.26)">
    <path d="m4097.8 121.12 189.75 100.93 68.634 133.23 246.27 205.9 32.298 181.68 278.57 181.68v339.13l201.86 278.57-121.12 278.57-181.68 44.41-169.57-161.49-218.01 226.09-270.5-157.45-189.75 153.42-270.5-145.34-201.86 149.38-238.2-72.671-270.5 117.08-246.27-80.745-76.708-266.46 246.27-262.42-28.261-189.75 189.75-262.42 141.3-56.522 68.634-262.42 270.5-226.09 375.47-129.19z" style="fill:#e37c7c;paint-order:stroke fill markers;stroke-dasharray:23, 34.5, 17.25;stroke-linecap:round;stroke-linejoin:round;stroke-miterlimit:5.8;stroke-width:11.5;stroke:#000"/>
    <path d="m4796.3 1828.9-205.9 1219.3-742.86 44.41-645.96-92.857-209.94-1029.5 209.94-121.12 270.5 92.857 218.01-149.38 125.16 32.298 173.6 96.894 205.9-129.19 181.68 109.01 250.31-197.83z" style="fill:#b66d28;paint-order:stroke fill markers;stroke-dasharray:23, 34.5, 17.25;stroke-linecap:round;stroke-linejoin:round;stroke-miterlimit:5.8;stroke-width:11.5;stroke:#000"/>
    <g transform="translate(125.16 36.335)" style="fill:#7e4c1c">
      <path d="m3940.5-8.0753c40.707 307.87-863.41 98.587-906.08 804.11-187.69 81.52-450.17 307.73-295.25 538.95-193.63 49.907-512.65 608.12 85.404 649.4 64.295 298.35 141.7 709.15 208.04 1025.1 217.24 55.414 488.97 88.32 783.9 88.32 255.05 0 492.79-24.614 692.92-67.094 62.733-339.15 135.55-866.91 196.05-1164 299.99 17.813 443.15-494.52 122.64-688.37 66.36-26.187 100-420.51-280.23-528.77 1.3867-153.29-86.48-267.68-264.92-368.36-16.12-125.93-181.85-216.76-342.48-289.31zm56.348 135.24c223.92 141.71 279.63 284.85 10.533 402.2-254.47 111.11-558.57 103.33-879.5 270.37 55.088-587.67 872.89-451.29 868.97-672.57zm254.45 234.53c379.99 270.63 187.29 517.28-141.71 632.33-391.35 136.92-1009.9 148.73-1274.6 335.31-123.38-184.19 39.036-336.64 221.87-436.09 265.92-144.61 637.98-195.99 759.44-226.13 198.76-49.32 449.51-95.907 435.04-305.41zm251.61 391.75c356.91 99.867 302.27 388.99 116.72 526.35-198.93 147.24-746.89 260.96-1144.3 327.33 238.7 18.907 1244.7-153.55 1315.2-316.49 139.6 111.33 170.43 349.12 19.959 439.27-191.77 114.88-158.07-103.04-297.41-120.15-113.61-13.933-145.77 202.29-239.93 217.68-94.16 15.4-118.73-145.99-203-145.17-84.24 0.8934-140.6 129.79-235.31 128.11-94.704-1.68-151.17-145.84-244.49-136.59-93.341 9.2667-110.49 161.69-207.72 170.77-97.187 9.08-186.33-114.59-299.82-98.146-93.9 18.307-103.86 153.32-245.32 146.96-351.92-15.8-358.36-403.99 106.98-569.15 305.52-108.45 702.81-140.07 858.88-164.68 391.66-61.8 697.06-177.38 699.62-406.09zm10.346 990.76c1.76 0.1467 3.535 0.3319 5.375 0.5586 54.133 2.0933 55.425 56.934 103.38 105.01-63.653 312.65-139.36 777.21-191.68 1092.1-39.133 7.0666-79.519 13.453-120.95 19.133 70.187-365.04 154.92-949.77 203.87-1216.8zm-907.6 55.059c22.408 0.2937 42.72 9.2994 62.084 22.541-4.388 302.29 6.6528 834.67 20.607 1169.6-50.212-1.6667-99.562-4.2921-147.91-7.7989-12.157-309.56-44.529-800.49-53.086-1100.1 26.411-37.84 64.726-79.413 108.56-83.746 3.29-0.3267 6.5352-0.4639 9.7363-0.4219zm461 13.488c38.427-0.3734 78.014 40.466 102.65 71.279-34.747 274.88-74.894 772.25-95.348 1100.9-48.973 3.2932-98.96 5.6548-149.77 7.0684 31.28-352.45 49.747-889.75 82.174-1167.1 10.187-3.9866 48.973-11.985 60.293-12.105zm354.89 44.799c-41.053 269.05-113.88 783.68-151.19 1108.6-54.08 6.7606-109.87 12.36-167.11 16.693 40.987-308.36 73.333-782.71 118.39-1047.1 62.28 13.08 164.53-28.388 199.91-78.188zm-1303.6 13.363c31.232 1.0425 65.967 8.977 90.387 19.957 43.987 286.57 99.821 764.92 151.6 1074.9-50.848-6.3864-100.14-13.867-147.7-22.24-41.584-310.85-107.62-787.75-146.71-1064.2 6.896-2.84 14.463-5.2671 22.867-7.0937 9.1203-1.3267 19.142-1.744 29.553-1.3965zm607.34 10.504c31.588 28.733 75.669 54.133 115.1 54.84 30.92 0.56 73.667-12.332 97.414-29.959-18.693 270.89-40.654 761.6-47.56 1086.5-24.44 0.4536-48.999 0.707-73.746 0.707-35.137 0-69.917-0.4785-104.33-1.3984 7.176-316.79 0.5073-816.83 13.115-1110.7zm-477.48 48.787c41.396 23.507 98.626 44.16 140.41 40.24 18.043-1.68 33.324-8.2943 46.848-18.041 17.539 284.12 52.771 739.25 82.58 1029.5-44.341-3.5204-87.771-7.774-130.19-12.734-38.776-299.21-104.6-758.35-139.65-1039zm-243.77 12.106c49.521 261.44 118.45 704.97 176.54 995.47-25.707-4.8533-50.848-9.9737-75.41-15.4-52.061-287.2-120.22-653.42-179.23-916.62 31.997-13.453 61.471-40.988 78.098-63.441z" style="fill-rule:evenodd;fill:#7e4c1c"/>
    </g>
  </g>
</svg>
