<svg version="1.1" viewBox="0 0 239.92 275.07" xmlns="http://www.w3.org/2000/svg">
  <g transform="translate(-449.4 -177.02)">
    <path d="m538.82 429.64c1.1314-0.28284-19.799 10.748-19.799 10.748l-33.093-16.405-28.001-31.396-5.374-54.871 13.859-42.992 27.436-32.244 28.85-15.274 35.072-9.8995 33.093 5.0912 37.618 15.274 40.447 41.295 15.274 67.034-22.627 51.76-34.79 26.022-61.094 4.2426-12.728-16.971z" style="fill:#826f63;paint-order:stroke fill markers"/>
    <path d="m560.31 257.1 31.678 60.811 5.0912 49.497-5.0912 35.921s-37.618 31.396-35.921 30.83c1.6971-0.56568-32.527-5.374-32.527-5.374l-22.345-54.023 7.0711-55.154z" style="fill:#7a4d30;paint-order:stroke fill markers"/>
    <path d="m522.98 210.43 3.3941 9.8995 20.648 5.9397-0.84853-16.405-6.7882-12.162-6.2225-0.56569-2.5456 6.5054z" style="fill:#41b134;paint-order:stroke fill markers"/>
    <path d="m593.4 221.47 20.082 13.011 19.233-3.1113 25.456-21.496 9.6166-16.122-35.638-5.0912-20.93 3.3941-9.6166 3.677-16.688 16.405v8.4853z" style="fill:#218e14;paint-order:stroke fill markers"/>
    <path d="m559.46 199.97c-0.56569 1.1314 11.031 12.445 11.031 12.445l25.739-9.3338 6.7882-9.6166-5.374-7.3539-11.031 1.6971-7.9196-7.9196-6.2225 1.1314-2.2627 13.859-7.9196 1.1314z" style="fill:#25731c;paint-order:stroke fill markers"/>
    <path d="m563.4 449.29c-5.2523-2.6673-6.2062-3.7831-9.2263-10.792-1.1612-2.6947-1.9212-3.0896-7.4688-3.8805-5.4812-0.78145-6.5491-0.64119-9.4919 1.2468-6.8958 4.424-12.463 6.5247-18.316 6.9112-5.0184 0.33138-7.0634-0.0836-12.5-2.5368-10.492-4.7341-19.978-11.393-27.999-19.654-20.445-21.057-29.001-43.105-29.001-74.731 0-14.6 2.5948-26.169 9.4807-42.27 14.473-33.841 50.289-60.105 88.769-65.092 5.5544-0.71994 6.1601-2.4928 2.2812-6.6761-2.7119-2.9246-2.9612-3.0265-12.955-5.2964-8.598-1.9528-13.393-4.8381-15.191-9.141-2.6224-6.2763-1.1726-10.642 3.9621-11.931 1.7655-0.44311 3.1846-1.7858 4.0333-3.8163 1.732-4.1434 4.0784-5.966 7.6807-5.966 4.6578 0 7.6883 3.7234 10.48 12.877 4.7317 15.513 9.8588 26.186 12.683 26.401 1.344 0.10267 3.501-5.3985 5.2615-13.419 1.6819-7.6622 1.6796-8.0144-0.0576-9-2.9971-1.7005-7.4629-6.8728-8.0999-9.3813-0.33546-1.3211 0.11263-3.846 1.0203-5.7494 1.2917-2.7087 2.5303-3.6378 6.1349-4.6019 4.4796-1.1981 4.5164-1.2435 4.5164-5.5663 0-4.3647 1.3364-8.0838 3.3997-9.4615 0.60517-0.40408 2.8569-0.74158 5.0039-0.75 3.3191-0.013 4.4915 0.62103 7.8301 4.2347 3.7072 4.0126 4.1937 4.2315 8.7095 3.9182 4.1788-0.2899 5.0445 6.7e-4 6.8533 2.3002 1.1387 1.4476 2.2246 3.0947 2.4131 3.6603 0.21767 0.65301 3.2527 0.28836 8.3166-0.99919 18.847-4.7922 33.917-4.5161 50.65 0.92801 5.4029 1.7578 9.8234 3.7329 9.8234 4.3891 0 1.6436-16.171 19.713-24.306 27.161-3.6694 3.359-9.7141 7.6233-13.433 9.4763-6.1525 3.0658-7.5715 3.3712-15.761 3.3928-8.8833 0.0234-9.0872-0.0314-15.725-4.2263-3.819-2.4133-7.948-4.25-9.5542-4.25-4.7897 0-15.783 7.978-13.628 9.8902 0.49919 0.44302 4.2826 1.346 8.4076 2.0066 13.252 2.1223 17.34 3.3018 25.5 7.3582 23.252 11.559 38.301 23.706 52.062 42.022 8.9272 11.882 12.484 18.559 17.163 32.223 7.7024 22.493 8.2209 43.888 1.5743 64.959-10.251 32.497-34.171 54.889-67.933 63.591-6.1327 1.5808-12.274 2.1385-27.866 2.5305l-20 0.50287zm46.997-7.2965c6.252-1.2987 12.748-3.5581 19-6.6083 8.3259-4.062 10.736-5.8885 19.5-14.778 16.481-16.717 23.969-33.24 26.55-58.588 2.7998-27.494-4.9898-53.386-22.72-75.52-18.178-22.693-38.886-36.128-63.218-41.013-16.425-3.2979-18.296-3.2467-21.524 0.58955-5.2927 6.29-2.9514 13.861 10.312 33.346 8.0897 11.885 14.822 27.939 18.064 43.077 6.4654 30.191 7.2091 40.655 4.1221 58-1.1746 6.6-3.0488 14.869-4.1649 18.376-2.029 6.3752-8.6109 18.97-11.754 22.493-3.0142 3.378-13.574 10.316-18.515 12.164-2.6663 0.99749-5.1039 2.4808-5.4168 3.2962-0.87404 2.2777 3.4641 5.171 7.7533 5.171 16.972 0 36.003-26.469 41.46-57.666 1.943-11.108 1.9877-32.191 0.10023-47.334-0.80543-6.4621-1.0549-11.882-0.56947-12.371 0.48709-0.49137 1.8642 2.3437 3.1573 6.5 2.1115 6.7867 2.2962 9.2356 2.3285 30.871 0.0339 22.678-0.062 23.85-2.7413 33.5-3.8007 13.689-11.745 30.104-17.976 37.144-1.0439 1.1795-1.5267 2.3617-1.0728 2.6271 1.5718 0.91916 18.575-3.1589 23.772-5.7015 10.038-4.9113 23.427-15.389 28.665-22.432 9.4268-12.676 16.126-30.865 17.548-47.645 1.2744-15.039-3.1026-34.982-11.255-51.284-5.8933-11.784-15.078-23.339-27.731-34.885-3.1199-2.847-5.6725-5.4345-5.6725-5.75 0-1.6116 3.0536-0.0437 9.431 4.8422 15.779 12.089 29.284 31.248 36.361 51.584 8.9086 25.598 7.6567 50.363-3.7165 73.513-7.7066 15.687-22.424 30.497-34.877 35.096-2.5844 0.95447-5.149 2.0594-5.699 2.4555-2.6228 1.8887-17.851 5.7374-24.955 6.3069-4.375 0.35074-8.4025 1.0857-8.95 1.6332-1.7538 1.7538 14.299 1.0898 24.405-1.0093zm15.66-33.725c3.762-4.2512 7.8546-8.8615 9.0948-10.245 3.6094-4.0267 8.8828-14.981 10.603-22.025 2.2164-9.0759 3.82-24.519 3.1097-29.946-0.32787-2.5049-1.502-8.7075-2.6093-13.783-2.5876-11.863-2.0419-14.614 1.4422-7.2708 3.6278 7.6457 5.0353 18.129 4.4305 33-0.79321 19.502-6.2171 33.607-17.818 46.338-5.3885 5.9133-12.528 11.662-14.483 11.662-0.33538 0 2.4682-3.4783 6.2301-7.7295zm-21.966-92.521c-0.86771-2.3375-2.3286-6.725-3.2464-9.75-4.3888-14.465-9.2705-25.062-18.374-39.886-5.6866-9.2596-6.2172-12.272-1.2368-7.0216 8.1558 8.5983 25.196 44.627 26.206 55.407 0.62417 6.6631-1.1005 7.3069-3.3489 1.25zm-82.188 120.24c0.34325-0.55539-0.76973-2.1826-2.4733-3.6161-5.4884-4.6182-11.957-14.835-15.057-23.783-4.731-13.654-6.3752-24.904-6.3709-43.591 4e-3 -15.257 0.2461-17.463 3.2203-29.282 3.9677-15.768 6.9069-23.68 12.883-34.682 7.6676-14.116 14.774-22.36 30.699-35.618 11.321-9.4246 13.181-22.418 3.2096-22.418-4.1653 0-17.28 3.4278-25.617 6.6957-8.3732 3.282-23.598 13.35-32.434 21.449-16.494 15.118-29.534 38.521-33.566 60.244-1.661 8.9484-0.73886 28.201 1.9066 39.805 5.5974 24.552 15.96 39.847 38.08 56.206 0.81762 0.60468-0.57145-1.2839-3.0868-4.1969-5.6187-6.5068-13.244-19.182-17.6-29.254-4.6676-10.794-8.738-35.097-7.9469-47.45 0.6259-9.7736 1.3888-13.5 2.7637-13.5 0.48585 0 0.88518 5.5125 0.88739 12.25 8e-3 23.657 5.0656 43.637 15.146 59.833 3.3972 5.458 6.333 9.7674 6.524 9.5763 0.19105-0.19104-0.25947-2.105-1.0012-4.2533-2.8802-8.3428-6.6821-34.385-6.6554-45.588 0.0292-12.258 4.8106-36.66 6.9269-35.353 0.47735 0.29502 0.70111 1.3234 0.49727 2.2854-2.2916 10.814-3.6511 28.079-3.1953 40.58 0.8801 24.141 8.9783 49.97 18.436 58.8 5.2758 4.9259 12.265 7.3824 13.824 4.859zm-26.506-117.64c0-6.1106 9.7734-23.927 20.434-37.25 6.1865-7.7317 21.637-23.049 25.067-24.852 4.4034-2.3142 3.5013 0.45838-1.7716 5.4453-7.1851 6.7953-20.446 21.56-25.872 28.806-2.4712 3.3-6.8653 10.725-9.7646 16.5-5.8459 11.644-8.0929 14.796-8.0929 11.352zm59.454 106.55c4.7645-4.1833 6.8049-11.096 5.9501-20.158-0.56935-6.0364-0.35049-7.3378 2.064-12.273 3.1267-6.3908 6.5628-8.5907 17.26-11.051 7.4037-1.7026 11.271-3.7097 11.271-5.8491 0-1.7614-5.1685-3.5748-10.189-3.5748-5.4245 0-10.773-3.0206-15.37-8.6793-3.9937-4.9169-6.546-7.2426-11.916-10.858-1.8933-1.2747-3.856-4.0813-5.2448-7.5-3.1878-7.8473-2.9853-16.002 0.71928-28.963 3.3849-11.842 3.6019-15.169 1.5-23-0.81194-3.025-1.4816-7.6109-1.4881-10.191-7e-3 -2.58-0.42625-4.9471-0.93271-5.2601s-2.3298 1.8935-4.0518 4.9033l-3.131 5.4724 2.0229 6.5493c1.8564 6.0102 1.9718 8.2563 1.4021 27.288-0.69375 23.177-0.70255 23.135 7.2363 34.186 5.9718 8.3123 8.3749 16.184 8.5551 28.023 0.0976 6.4147-0.26895 7.7241-4.5328 16.191-3.4588 6.8683-4.5817 10.183-4.4137 13.03 0.51924 8.8-4.3812 6.7584-8.4798-3.5328-3.5189-8.8357-4.12-14.977-2.2535-23.025 2.8542-12.307 1.6844-16.684-6.8505-25.632-7.0065-7.3456-8.0902-12.026-7.0935-30.634 0.60454-11.287 0.44814-14.039-1.0546-18.56-0.97042-2.919-1.9547-4.6322-2.1874-3.8072s-1.5084 3.8748-2.835 6.7773c-1.3266 2.9025-2.412 5.5591-2.412 5.9035 0 0.3444 1.1857 3.1326 2.6349 6.196 2.3437 4.9542 2.4959 5.9043 1.3772 8.5965-0.69173 1.6647-1.9617 5.5427-2.8221 8.6178-2.0003 7.1491-0.96507 9.9104 7.0182 18.72 5.3672 5.9224 5.7918 6.7436 5.7918 11.201 0 2.6455-0.89419 7.6627-1.9871 11.149-1.0929 3.4865-1.9929 8.1672-2 10.402-0.0148 4.663 4.8478 19.803 8.1105 25.252 3.9133 6.536 4.8165 7.1852 9.9968 7.1852 3.9512 0 5.4395-0.55253 8.3342-3.0941zm-24.788-8.0858c-1.3896-3.476-3.5099-10.116-4.7116-14.756l-2.185-8.4358 2.7024-8.1327c3.772-11.352 2.9735-13.986-7.2502-23.916-6.3056-6.1248-7.847-7.187-8.402-5.7902-1.4024 3.5293-0.72014 6.1413 2.6613 10.189 6.5794 7.875 6.8664 15.829 0.85837 23.787-2.7556 3.6502-2.7116 3.9913 1.8205 14.092 1.9945 4.4453 4.9938 8.59 9.5901 13.253 3.6784 3.7314 6.8578 6.6146 7.0654 6.4071s-0.75964-3.2214-2.1493-6.6974zm43.823-1.8c1.7638-3.4109 1.9193-6.8142 0.48378-10.59-0.79035-2.0788-0.66999-3.2443 0.52305-5.0651 1.9322-2.9488 4.158-3.0134 6.4467-0.18689l1.7638 2.1781 2.5282-4.4281c1.3905-2.4355 2.8169-5.6728 3.1696-7.1941 0.55015-2.3726 0.247-2.9164-2.1317-3.8233-7.153-2.7274-16.087 1.9417-20.277 10.597-1.8799 3.8834-2.054 5.4038-1.4333 12.519 0.78035 8.9458 2.2818 11.661 5.4963 9.941 1.0561-0.56521 2.5999-2.342 3.4306-3.9484zm-25.49-9.545c0-0.83873 1.6356-4.7728 3.6346-8.7423 4.8537-9.6382 5.5096-16.954 2.3897-26.657-1.5515-4.825-3.4758-8.3091-6.2297-11.279-8.3575-9.0122-10.262-16.523-8.8238-34.797 1.2845-16.322 1.1683-26.695-0.3461-30.881l-1.2231-3.381-1.5563 2.381c-5.0182 7.6773-6.1041 11.139-5.2776 16.826 0.44403 3.0553 0.86517 13.43 0.93586 23.055 0.14558 19.823 0.85227 22.587 7.5426 29.5 4.084 4.2202 6.9538 10.729 6.9538 15.771 0 1.6609-0.99662 7.0328-2.2147 11.938l-2.2147 8.9177 2.3537 4.4367c2.3818 4.4898 4.0757 5.7 4.0757 2.9117zm-36-24.808c1.3693-2.4393 1.3257-2.9928-0.5-6.3523-3.8438-7.0729-5.5665-4.4019-3.852 5.9725 0.70209 4.2484 2.1114 4.3714 4.352 0.37979zm72.007-14.176c1.7656-2.1274 0.76428-9.2257-2.1185-15.018-1.8544-3.7259-3.867-5.7473-9.0042-9.0438-9.0396-5.8006-11.424-10.539-11.284-22.43 0.10701-9.1432 3.3962-21.524 7.8876-29.689 2.1258-3.8647 2.1768-4.2999 0.65863-5.6157-3.6582-3.1704-6.398-2.7677-11.385 1.6735-4.5605 4.0616-4.7018 4.3506-3.75 7.6695 1.6691 5.8198 1.111 14.694-1.6242 25.826-4.1914 17.059-2.5865 23.898 7.4174 31.61 2.8721 2.2142 6.4255 5.8257 7.8963 8.0257 3.2163 4.8107 4.8511 6.1852 8.7996 7.3981 4.3206 1.3272 5.109 1.278 6.5067-0.40617zm6.487-19.162c-1.2855-4.422-2.8991-6.8465-8.0055-12.029-8.0691-8.189-8.9161-10.703-8.1587-24.216 0.32632-5.8219 0.26647-12.38-0.133-14.573l-0.72632-3.9873-3.1893 8.0709c-3.6055 9.1241-5.5808 19.524-4.6593 24.531 1.0495 5.7034 5.1171 11.699 9.4296 13.899 4.5891 2.3412 10.2 9.4968 12.525 15.974 3.5117 9.7816 3.8893 10.111 4.2242 3.6843 0.17242-3.3087-0.39097-8.2031-1.307-11.354zm-77.085-4.6754c1.479-1.981 2.1337-4.678 2.4121-9.937 0.43008-8.1235-0.62732-8.1964-3.1647-0.21803-4.0616 12.771-3.8032 16.257 0.7526 10.155zm76.592-13.132c0-3.6876-5.4166-20.705-7.6219-23.946-1.0327-1.5176-1.4156-1.623-1.8171-0.5-1.1804 3.301-2.3376 17.377-1.588 19.316 1.1882 3.0727 7.656 8.4703 10.277 8.5766 0.4125 0.0167 0.75-1.5343 0.75-3.4467zm-27.547-56.614c-0.79132-1.5302-1.8559-3.0401-2.3658-3.3552-1.7357-1.0727-5.0872 4.567-5.0872 8.5604v3.8445l4.4459-3.1337c4.3609-3.0738 4.4184-3.1869 3.0071-5.916zm65.047-42.727c7.6417-2.6784 17.382-10.623 31-25.284 7.4217-7.9903 7.4422-7.5329-0.44293-9.8812-12.174-3.6256-22.462-4.3827-34.75-2.5572-13.937 2.0706-17.826 3.2892-21.525 6.7445-2.7264 2.5468-2.9651 3.2446-2.3744 6.9389 0.7973 4.986 2.2326 7.8568 3.9281 7.8568 2.8423 0 9.5364-5.6423 15.53-13.09 5.6107-6.9717 8.1345-9.2453 8.1345-7.3278 0 1.1382-7.2199 12.956-9.2667 15.168-2.7885 3.0136-1.9317 2.851 6.0155-1.1422 3.7132-1.8657 12.151-5.0733 18.751-7.1281 6.6-2.0548 12.562-3.9514 13.25-4.2148 0.6875-0.26338 1.25-0.0825 1.25 0.4019 0 0.48442-3.4875 2.1736-7.75 3.7537-10.298 3.8175-21.767 9.2926-23.277 11.112-1.0279 1.2385-0.69211 1.4792 2.1549 1.5446 1.8548 0.0426 5.6224 0.9305 8.3724 1.973l5 1.8955-5-0.72304c-2.75-0.39767-8.6-0.7052-13-0.6834-8.7387 0.0433-13.826 1.9368-18.416 6.8541l-2.4159 2.5884 2.8567 2.4547c5.2824 4.5391 13.816 5.6052 21.975 2.7453zm-49.54-6.4177c3.8292-4.2482 4.2006-5.0971 3.6091-8.25-0.54692-2.9153-1.089-3.5145-3.1798-3.5145-5.5404 0-6.389 1.3593-6.389 10.235 0 4.5313 0.37629 7.742 0.84556 7.2148 0.46505-0.5225 2.7664-3.081 5.114-5.6855zm-38.637-4.0771c-6.931-8.7945-9.9251-11.161-12.75-10.077-0.86484 0.33188-1.5724 1.6552-1.5724 2.9407 0 3.594 3.9347 7.2161 9 8.285 7.0916 1.4965 7.3615 1.4383 5.3226-1.1488zm57.477-1.8874c1.5525-1.5525 1.5525-8.0475 0-9.6-1.9093-1.9093-5.5497-1.3954-7.2433 1.0225-1.5713 2.2433-2.1218 7.879-0.89003 9.1108 1.1187 1.1187 6.8576 0.7424 8.1333-0.53333zm-54.794-10.777c-1.2924-4.7996-4.3011-8.2303-6.4834-7.3929-3.2761 1.2571-0.21673 8.9228 5.14 12.879 2.44 1.8021 2.8524 0.11786 1.3434-5.4862zm30.429-0.9509c2.1439-2.369 1.3959-5.2728-2.0581-7.9897-2.6473-2.0824-5.0492-1.83-7.1271 0.74891-1.8423 2.2865-1.5403 3.9697 1.2046 6.7146 2.9524 2.9524 5.6254 3.1287 7.9806 0.52621zm11.419-1.3954c0.80229-0.9667 0.78137-1.6411-0.0775-2.5-2.5376-2.5376-5.9945-0.34913-3.7399 2.3676 1.4965 1.8032 2.4047 1.8347 3.8174 0.13241zm10.869-4.6489c4.3526-2.6539 5.3621-6.7301 2.284-9.2226-2.0044-1.623-2.5606-1.6836-4.4008-0.47921-2.9044 1.901-4.9079 6.3368-4.1772 9.2483 0.73717 2.9371 2.064 3.0327 6.294 0.45355zm-13.746-5.5002c1.8049-2.1747 1.4944-8.3481-0.53255-10.588-2.0933-2.313-5.7137-2.5254-7.4471-0.43676-1.6756 2.019-0.54333 7.2881 2.1918 10.199 2.5033 2.6646 4.0752 2.8887 5.7879 0.82511z"/>
  </g>
</svg>
